<mxfile host="app.diagrams.net" agent="Mozilla/5.0 (Windows NT 10.0; Win64; x64) AppleWebKit/537.36 (KHTML, like Gecko) Chrome/137.0.0.0 Safari/537.36" version="27.1.4">
  <diagram name="Страница — 1" id="sDyPfZa4o75FltWUDuEy">
    <mxGraphModel dx="1043" dy="578" grid="1" gridSize="10" guides="1" tooltips="1" connect="1" arrows="1" fold="1" page="1" pageScale="1" pageWidth="827" pageHeight="1169" math="0" shadow="0">
      <root>
        <mxCell id="0" />
        <mxCell id="1" parent="0" />
        <mxCell id="bvIYKApIhO2hXJUBfOdK-1" value="&lt;font style=&quot;&quot;&gt;&lt;b style=&quot;font-size: 15px;&quot;&gt;База данных&lt;/b&gt;&lt;br&gt;&lt;font style=&quot;font-size: 14px;&quot;&gt;&lt;br&gt;SQLite&lt;/font&gt;&lt;/font&gt;" style="verticalAlign=top;align=left;spacingTop=8;spacingLeft=2;spacingRight=12;shape=cube;size=10;direction=south;fontStyle=4;html=1;whiteSpace=wrap;" vertex="1" parent="1">
          <mxGeometry x="220" y="50" width="180" height="120" as="geometry" />
        </mxCell>
        <mxCell id="bvIYKApIhO2hXJUBfOdK-2" value="&lt;b style=&quot;font-size: 15px;&quot;&gt;Рабочая станция&lt;/b&gt;&lt;br&gt;&lt;br&gt;&lt;font style=&quot;font-size: 14px;&quot;&gt;Веб-приложение&lt;/font&gt;" style="verticalAlign=top;align=left;spacingTop=8;spacingLeft=2;spacingRight=12;shape=cube;size=10;direction=south;fontStyle=4;html=1;whiteSpace=wrap;" vertex="1" parent="1">
          <mxGeometry x="220" y="330" width="180" height="120" as="geometry" />
        </mxCell>
        <mxCell id="bvIYKApIhO2hXJUBfOdK-3" value="&lt;span style=&quot;font-size: 15px;&quot;&gt;&lt;b&gt;Личный кабинет&lt;/b&gt;&lt;/span&gt;" style="verticalAlign=top;align=left;spacingTop=8;spacingLeft=2;spacingRight=12;shape=cube;size=10;direction=south;fontStyle=4;html=1;whiteSpace=wrap;" vertex="1" parent="1">
          <mxGeometry x="480" y="190" width="180" height="120" as="geometry" />
        </mxCell>
        <mxCell id="bvIYKApIhO2hXJUBfOdK-4" value="" style="endArrow=none;html=1;rounded=0;exitX=0;exitY=0;exitDx=0;exitDy=0;exitPerimeter=0;entryX=1;entryY=1;entryDx=0;entryDy=0;entryPerimeter=0;" edge="1" parent="1" source="bvIYKApIhO2hXJUBfOdK-2" target="bvIYKApIhO2hXJUBfOdK-3">
          <mxGeometry width="50" height="50" relative="1" as="geometry">
            <mxPoint x="540" y="450" as="sourcePoint" />
            <mxPoint x="590" y="400" as="targetPoint" />
          </mxGeometry>
        </mxCell>
        <mxCell id="bvIYKApIhO2hXJUBfOdK-6" value="" style="endArrow=none;html=1;rounded=0;entryX=0;entryY=0;entryDx=10;entryDy=180;entryPerimeter=0;exitX=0;exitY=0;exitDx=110;exitDy=0;exitPerimeter=0;" edge="1" parent="1" source="bvIYKApIhO2hXJUBfOdK-1" target="bvIYKApIhO2hXJUBfOdK-3">
          <mxGeometry width="50" height="50" relative="1" as="geometry">
            <mxPoint x="310" y="320" as="sourcePoint" />
            <mxPoint x="360" y="270" as="targetPoint" />
          </mxGeometry>
        </mxCell>
      </root>
    </mxGraphModel>
  </diagram>
</mxfile>
